<mxfile host="app.diagrams.net" modified="2020-07-24T12:23:29.335Z" agent="5.0 (Windows NT 10.0; Win64; x64) AppleWebKit/537.36 (KHTML, like Gecko) Chrome/84.0.4147.89 Safari/537.36" etag="1KBBLMkUWBGFr8RAck3S" version="13.0.9" type="github" pages="3">
  <diagram id="bzKlrHnCwBYonJbPBm2j" name="JS / ES / TS">
    <mxGraphModel dx="870" dy="599" grid="1" gridSize="10" guides="1" tooltips="1" connect="1" arrows="1" fold="1" page="1" pageScale="1" pageWidth="1600" pageHeight="900" math="0" shadow="0">
      <root>
        <mxCell id="kOwpRR4sZoT1yzOeRNBn-0" />
        <mxCell id="kOwpRR4sZoT1yzOeRNBn-1" parent="kOwpRR4sZoT1yzOeRNBn-0" />
        <mxCell id="zvGlFFVRIiKLJRZCXVUM-0" value="TS" style="ellipse;whiteSpace=wrap;html=1;aspect=fixed;fillColor=#187abf;fontSize=32;fontColor=#FFFFFF;align=right;fontFamily=Fira Code;spacingRight=20;" parent="kOwpRR4sZoT1yzOeRNBn-1" vertex="1">
          <mxGeometry x="240" y="10" width="480" height="480" as="geometry" />
        </mxCell>
        <mxCell id="zvGlFFVRIiKLJRZCXVUM-1" value="ES3, ES5, ES20XX" style="ellipse;whiteSpace=wrap;html=1;aspect=fixed;fillColor=#f7df1e;fontSize=32;fontFamily=Fira Code;" parent="kOwpRR4sZoT1yzOeRNBn-1" vertex="1">
          <mxGeometry x="240" y="100" width="280" height="280" as="geometry" />
        </mxCell>
      </root>
    </mxGraphModel>
  </diagram>
  <diagram id="ahxa_7Z1dyoWvUU_nvnM" name="Angular">
    <mxGraphModel dx="870" dy="1768" grid="1" gridSize="10" guides="1" tooltips="1" connect="1" arrows="1" fold="1" page="1" pageScale="1" pageWidth="827" pageHeight="1169" math="0" shadow="0">
      <root>
        <mxCell id="jBgbIuI6AMPZR0mEnXtF-0" />
        <mxCell id="jBgbIuI6AMPZR0mEnXtF-1" parent="jBgbIuI6AMPZR0mEnXtF-0" />
        <mxCell id="AC6yFyZTImTNVwZBDV3e-0" value="@Module" style="ellipse;whiteSpace=wrap;html=1;aspect=fixed;fillColor=#DD0031;fontSize=32;fontColor=#FFFFFF;align=center;fontFamily=Fira Code;spacingRight=0;verticalAlign=top;spacing=15;strokeColor=#FFFFFF;opacity=70;" parent="jBgbIuI6AMPZR0mEnXtF-1" vertex="1">
          <mxGeometry x="170" y="20" width="480" height="480" as="geometry" />
        </mxCell>
        <mxCell id="-zIaNXF0FWcu5_l1LjiO-0" value="@Component" style="ellipse;whiteSpace=wrap;html=1;aspect=fixed;fillColor=#DD0031;fontSize=16;fontColor=#FFFFFF;align=center;fontFamily=Fira Code;spacingRight=0;verticalAlign=middle;spacing=15;strokeColor=#FFFFFF;opacity=70;" parent="jBgbIuI6AMPZR0mEnXtF-1" vertex="1">
          <mxGeometry x="220" y="100" width="150" height="150" as="geometry" />
        </mxCell>
        <mxCell id="_ynVYw9CkxoSSAdwQUYI-0" value="@Directive" style="ellipse;whiteSpace=wrap;html=1;aspect=fixed;fillColor=#DD0031;fontSize=16;fontColor=#FFFFFF;align=center;fontFamily=Fira Code;spacingRight=0;verticalAlign=middle;spacing=15;strokeColor=#FFFFFF;opacity=70;" parent="jBgbIuI6AMPZR0mEnXtF-1" vertex="1">
          <mxGeometry x="440" y="100" width="150" height="150" as="geometry" />
        </mxCell>
        <mxCell id="uud_EPR3xU5L3ywMBhCe-0" value="@Pipe" style="ellipse;whiteSpace=wrap;html=1;aspect=fixed;fillColor=#DD0031;fontSize=16;fontColor=#FFFFFF;align=center;fontFamily=Fira Code;spacingRight=0;verticalAlign=middle;spacing=15;strokeColor=#FFFFFF;opacity=70;" parent="jBgbIuI6AMPZR0mEnXtF-1" vertex="1">
          <mxGeometry x="220" y="270" width="150" height="150" as="geometry" />
        </mxCell>
        <mxCell id="ajlQTBv0rp3n38Mc6ygl-0" value="Service&lt;br&gt;@Injectable" style="ellipse;whiteSpace=wrap;html=1;aspect=fixed;fillColor=#DD0031;fontSize=16;fontColor=#FFFFFF;align=center;fontFamily=Fira Code;spacingRight=0;verticalAlign=middle;spacing=15;strokeColor=#FFFFFF;opacity=70;" parent="jBgbIuI6AMPZR0mEnXtF-1" vertex="1">
          <mxGeometry x="440" y="280" width="150" height="150" as="geometry" />
        </mxCell>
        <mxCell id="ajlQTBv0rp3n38Mc6ygl-1" value="HttpClientModule" style="ellipse;whiteSpace=wrap;html=1;aspect=fixed;fillColor=#DD0031;fontSize=16;fontColor=#FFFFFF;align=center;fontFamily=Fira Code;spacingRight=0;verticalAlign=middle;spacing=15;strokeColor=#FFFFFF;opacity=70;" parent="jBgbIuI6AMPZR0mEnXtF-1" vertex="1">
          <mxGeometry y="420" width="190" height="190" as="geometry" />
        </mxCell>
        <mxCell id="O7_FRkBmG0F5C3wJo-e_-0" value="FormsModule&lt;br&gt;ReactiveFormsModule" style="ellipse;whiteSpace=wrap;html=1;aspect=fixed;fillColor=#DD0031;fontSize=16;fontColor=#FFFFFF;align=center;fontFamily=Fira Code;spacingRight=0;verticalAlign=middle;spacing=15;strokeColor=#FFFFFF;opacity=70;" parent="jBgbIuI6AMPZR0mEnXtF-1" vertex="1">
          <mxGeometry x="620" y="430" width="190" height="190" as="geometry" />
        </mxCell>
        <mxCell id="84A86jhDPQew2qcjbpvi-0" value="RouterModule" style="ellipse;whiteSpace=wrap;html=1;aspect=fixed;fillColor=#DD0031;fontSize=16;fontColor=#FFFFFF;align=center;fontFamily=Fira Code;spacingRight=0;verticalAlign=middle;spacing=15;strokeColor=#FFFFFF;opacity=70;" parent="jBgbIuI6AMPZR0mEnXtF-1" vertex="1">
          <mxGeometry x="620" y="-70" width="190" height="190" as="geometry" />
        </mxCell>
      </root>
    </mxGraphModel>
  </diagram>
  <diagram id="u3TcHS6ccKbTL2NqR-_o" name="Scratchpad">
    
    <mxGraphModel dx="1148" dy="698" grid="1" gridSize="10" guides="1" tooltips="1" connect="1" arrows="1" fold="1" page="1" pageScale="1" pageWidth="1600" pageHeight="900" math="0" shadow="0" extFonts="Fira Code^https://fonts.googleapis.com/css?family=Fira+Code">
      
      <root>
        
        <mxCell id="z1SK4lPGxJ5rGH3-lqOU-0" />
        
        <mxCell id="z1SK4lPGxJ5rGH3-lqOU-1" parent="z1SK4lPGxJ5rGH3-lqOU-0" />
        
        <mxCell id="MFJmV-EWmHX66INQx45z-1" value="" style="edgeStyle=orthogonalEdgeStyle;rounded=0;orthogonalLoop=1;jettySize=auto;html=1;fontFamily=Fira Code;fontSize=20;fontColor=#000000;" parent="z1SK4lPGxJ5rGH3-lqOU-1" source="sIjvR6XrghPiF4E69lmC-0" target="MFJmV-EWmHX66INQx45z-0" edge="1">
          
          <mxGeometry relative="1" as="geometry" />
          
        </mxCell>
        
        <mxCell id="MFJmV-EWmHX66INQx45z-11" value="" style="edgeStyle=orthogonalEdgeStyle;rounded=0;orthogonalLoop=1;jettySize=auto;html=1;fontFamily=Fira Code;fontSize=20;fontColor=#000000;" parent="z1SK4lPGxJ5rGH3-lqOU-1" source="sIjvR6XrghPiF4E69lmC-0" target="MFJmV-EWmHX66INQx45z-10" edge="1">
          
          <mxGeometry relative="1" as="geometry" />
          
        </mxCell>
        
        <mxCell id="sIjvR6XrghPiF4E69lmC-0" value="pi-root" style="ellipse;whiteSpace=wrap;html=1;strokeColor=#FFFFFF;fillColor=#FFFFCC;fontFamily=Fira Code;fontSize=16;fontColor=#000000;opacity=70;align=center;" parent="z1SK4lPGxJ5rGH3-lqOU-1" vertex="1">
          
          <mxGeometry x="422" y="40" width="120" height="80" as="geometry" />
          
        </mxCell>
        
        <mxCell id="MFJmV-EWmHX66INQx45z-10" value="pi-color-form" style="ellipse;whiteSpace=wrap;html=1;strokeColor=#FFFFFF;fillColor=#FFFFCC;fontFamily=Fira Code;fontSize=16;fontColor=#000000;opacity=70;align=center;" parent="z1SK4lPGxJ5rGH3-lqOU-1" vertex="1">
          
          <mxGeometry x="454" y="170" width="120" height="80" as="geometry" />
          
        </mxCell>
        
        <mxCell id="MFJmV-EWmHX66INQx45z-5" value="" style="edgeStyle=orthogonalEdgeStyle;rounded=0;orthogonalLoop=1;jettySize=auto;html=1;fontFamily=Fira Code;fontSize=20;fontColor=#000000;" parent="z1SK4lPGxJ5rGH3-lqOU-1" source="MFJmV-EWmHX66INQx45z-0" target="MFJmV-EWmHX66INQx45z-4" edge="1">
          
          <mxGeometry relative="1" as="geometry" />
          
        </mxCell>
        
        <mxCell id="MFJmV-EWmHX66INQx45z-7" value="" style="edgeStyle=orthogonalEdgeStyle;rounded=0;orthogonalLoop=1;jettySize=auto;html=1;fontFamily=Fira Code;fontSize=20;fontColor=#000000;startArrow=classic;startFill=1;" parent="z1SK4lPGxJ5rGH3-lqOU-1" source="MFJmV-EWmHX66INQx45z-0" target="MFJmV-EWmHX66INQx45z-6" edge="1">
          
          <mxGeometry relative="1" as="geometry" />
          
        </mxCell>
        
        <mxCell id="MFJmV-EWmHX66INQx45z-13" value="" style="edgeStyle=orthogonalEdgeStyle;rounded=0;orthogonalLoop=1;jettySize=auto;html=1;fontFamily=Fira Code;fontSize=20;fontColor=#000000;" parent="z1SK4lPGxJ5rGH3-lqOU-1" source="sIjvR6XrghPiF4E69lmC-0" target="MFJmV-EWmHX66INQx45z-12" edge="1">
          
          <mxGeometry relative="1" as="geometry" />
          
        </mxCell>
        
        <mxCell id="MFJmV-EWmHX66INQx45z-0" value="pi-led-list" style="ellipse;whiteSpace=wrap;html=1;strokeColor=#FFFFFF;fillColor=#FFFFCC;fontFamily=Fira Code;fontSize=16;fontColor=#000000;opacity=70;align=center;" parent="z1SK4lPGxJ5rGH3-lqOU-1" vertex="1">
          
          <mxGeometry x="230" y="170" width="120" height="80" as="geometry" />
          
        </mxCell>
        
        <mxCell id="MFJmV-EWmHX66INQx45z-12" value="pi-controls" style="ellipse;whiteSpace=wrap;html=1;strokeColor=#FFFFFF;fillColor=#FFFFCC;fontFamily=Fira Code;fontSize=16;fontColor=#000000;opacity=70;align=center;" parent="z1SK4lPGxJ5rGH3-lqOU-1" vertex="1">
          
          <mxGeometry x="614" y="170" width="120" height="80" as="geometry" />
          
        </mxCell>
        
        <mxCell id="MFJmV-EWmHX66INQx45z-6" value="pi-led" style="ellipse;whiteSpace=wrap;html=1;strokeColor=#FFFFFF;fillColor=#FFFFCC;fontFamily=Fira Code;fontSize=16;fontColor=#000000;opacity=70;align=center;" parent="z1SK4lPGxJ5rGH3-lqOU-1" vertex="1">
          
          <mxGeometry x="310" y="300" width="120" height="80" as="geometry" />
          
        </mxCell>
        
        <mxCell id="MFJmV-EWmHX66INQx45z-4" value="pi-led" style="ellipse;whiteSpace=wrap;html=1;strokeColor=#FFFFFF;fillColor=#FFFFCC;fontFamily=Fira Code;fontSize=16;fontColor=#000000;opacity=70;align=center;" parent="z1SK4lPGxJ5rGH3-lqOU-1" vertex="1">
          
          <mxGeometry x="150" y="300" width="120" height="80" as="geometry" />
          
        </mxCell>
        
      </root>
      
    </mxGraphModel>
    
  </diagram>
</mxfile>
